<?xml version="1.0" standalone="no"?>
<!DOCTYPE svg PUBLIC "-//W3C//DTD SVG 20010904//EN"
 "http://www.w3.org/TR/2001/REC-SVG-20010904/DTD/svg10.dtd">
<svg version="1.0" xmlns="http://www.w3.org/2000/svg"
 width="700.000000pt" height="700.000000pt" viewBox="0 0 700.000000 700.000000"
 preserveAspectRatio="xMidYMid meet">
<metadata>
Created by potrace 1.14, written by Peter Selinger 2001-2017
</metadata>
<g transform="translate(0.000000,700.000000) scale(0.100000,-0.100000)"
fill="#000000" stroke="none">
<path d="M3410 6323 c-57 -19 -33 -2 -510 -373 -223 -173 -421 -327 -440 -342
-44 -33 -1003 -780 -1049 -816 -19 -15 -127 -99 -240 -187 -212 -166 -262
-216 -283 -288 -17 -61 -19 -3164 -2 -3223 32 -110 97 -175 208 -208 32 -9
571 -12 2421 -11 l2380 0 55 26 c69 33 115 79 148 149 l26 55 1 1575 c1 1620
1 1621 -38 1695 -26 50 -58 77 -482 405 -38 30 -124 96 -190 148 -66 51 -133
103 -150 116 -16 13 -75 59 -130 102 -55 42 -129 100 -165 127 -36 28 -81 63
-100 79 -19 16 -39 32 -45 36 -34 25 -323 248 -335 259 -8 7 -132 104 -276
216 -634 492 -600 469 -698 473 -35 1 -80 -4 -106 -13z m380 -3988 l0 -875
-290 0 -290 0 0 875 0 875 290 0 290 0 0 -875z"/>
</g>
</svg>
