<svg width="76" height="38" viewBox="0 0 76 38" fill="none" xmlns="http://www.w3.org/2000/svg">
<path d="M11.6292 13.5219C11.6292 12.9401 11.5297 12.4501 11.3307 12.052C11.1469 11.6386 10.8943 11.3018 10.5728 11.0415C10.2666 10.7659 9.9144 10.5669 9.51631 10.4444C9.11823 10.3219 8.72014 10.2606 8.32205 10.2606C7.80147 10.2606 7.30386 10.3678 6.82922 10.5822C6.35458 10.7812 5.94118 11.0721 5.58902 11.4549C5.25218 11.8377 4.97658 12.3047 4.76222 12.8559C4.56318 13.4071 4.46366 14.0272 4.46366 14.7162V20.5497H2.85599V3.32472H4.46366V11.1334C4.86175 10.4903 5.38232 9.9391 6.02539 9.47977C6.66845 9.02044 7.49525 8.79077 8.50578 8.79077C9.17947 8.79077 9.79957 8.89029 10.3661 9.08934C10.9479 9.28838 11.4455 9.58695 11.8589 9.98504C12.2876 10.3831 12.6245 10.8807 12.8694 11.4779C13.1144 12.0597 13.2369 12.741 13.2369 13.5219V20.5497H11.6292V13.5219ZM17.7556 26.5669C17.2197 26.5669 16.7144 26.4444 16.2398 26.1995C15.7651 25.9698 15.3517 25.6865 14.9996 25.3497L15.5738 24.431C15.9872 24.6913 16.347 24.8674 16.6532 24.9593C16.9594 25.0511 17.212 25.0971 17.4111 25.0971C17.7479 25.0971 18.0465 24.9976 18.3068 24.7985C18.5824 24.6148 18.835 24.3545 19.0647 24.0176C19.2944 23.6961 19.5087 23.3133 19.7078 22.8693C19.9221 22.4406 20.1288 21.9736 20.3279 21.4683L20.5346 20.9631L15.3441 9.06637H17.0896L21.2695 18.8042L24.9441 9.06637H26.6896L21.8666 21.698C21.6523 22.2798 21.4302 22.854 21.2006 23.4205C20.9709 24.0023 20.6953 24.5229 20.3738 24.9822C20.0676 25.4569 19.7001 25.8397 19.2714 26.1306C18.858 26.4215 18.3527 26.5669 17.7556 26.5669ZM27.8334 9.06637H30.199V5.04721H31.8067V9.06637H36.6526V10.5362H31.8067V17.1047C31.8067 17.7937 31.9751 18.3449 32.3119 18.7583C32.6488 19.1564 33.2 19.3554 33.9655 19.3554C34.4096 19.3554 34.8536 19.2942 35.2976 19.1717C35.7569 19.0339 36.201 18.8502 36.6297 18.6205L37.1579 19.5621C36.622 20.0215 36.0555 20.3506 35.4584 20.5497C34.8765 20.7334 34.2947 20.8253 33.7129 20.8253C32.5952 20.8253 31.7301 20.5114 31.1177 19.8837C30.5052 19.2406 30.199 18.299 30.199 17.0588V10.5362H27.8334V9.06637ZM38.0832 9.06637H40.4488V5.04721H42.0564V9.06637H46.9024V10.5362H42.0564V17.1047C42.0564 17.7937 42.2248 18.3449 42.5617 18.7583C42.8985 19.1564 43.4497 19.3554 44.2153 19.3554C44.6593 19.3554 45.1033 19.2942 45.5474 19.1717C46.0067 19.0339 46.4507 18.8502 46.8794 18.6205L47.4076 19.5621C46.8718 20.0215 46.3052 20.3506 45.7081 20.5497C45.1263 20.7334 44.5445 20.8253 43.9627 20.8253C42.8449 20.8253 41.9799 20.5114 41.3674 19.8837C40.755 19.2406 40.4488 18.299 40.4488 17.0588V10.5362H38.0832V9.06637ZM54.6771 20.8253C53.7738 20.8253 52.947 20.6722 52.1967 20.3659C51.4618 20.0597 50.8264 19.6387 50.2905 19.1028C49.7546 18.5669 49.3412 17.9315 49.0503 17.1966C48.7594 16.4616 48.6139 15.6654 48.6139 14.808C48.6139 13.9506 48.767 13.1544 49.0733 12.4195C49.3795 11.6846 49.8005 11.0492 50.3364 10.5133C50.8723 9.97738 51.5001 9.55633 52.2197 9.25011C52.9546 8.94388 53.7431 8.79077 54.5853 8.79077C55.3661 8.79077 56.1011 8.92092 56.79 9.18121C57.479 9.42618 58.0762 9.8013 58.5814 10.3066C59.0867 10.8118 59.4848 11.4396 59.7757 12.1898C60.0819 12.9401 60.235 13.8128 60.235 14.808C60.235 14.9458 60.235 15.0683 60.235 15.1755C60.235 15.2827 60.2197 15.3975 60.1891 15.52H50.2675C50.4206 16.6683 50.9106 17.6023 51.7374 18.3219C52.5642 19.0415 53.6283 19.4014 54.9298 19.4014C55.5728 19.4014 56.2465 19.3095 56.9508 19.1258C57.6551 18.9267 58.3212 18.6435 58.9489 18.276L59.592 19.2865C58.9642 19.7305 58.2523 20.098 57.4561 20.3889C56.6599 20.6798 55.7336 20.8253 54.6771 20.8253ZM58.6503 14.0961C58.6197 13.4989 58.4896 12.963 58.2599 12.4884C58.0456 11.9984 57.7546 11.5927 57.3872 11.2712C57.035 10.9343 56.614 10.674 56.124 10.4903C55.6494 10.3066 55.1365 10.2147 54.5853 10.2147C54.0187 10.2147 53.4829 10.3142 52.9776 10.5133C52.4876 10.697 52.0513 10.9573 51.6685 11.2941C51.301 11.631 50.9948 12.0367 50.7498 12.5114C50.5049 12.986 50.3441 13.5142 50.2675 14.0961H58.6503Z" fill="#ACC0CA"/>
<line x1="46.5985" y1="37.2586" x2="75.1828" y2="19.6139" stroke="#ACC0CA" stroke-width="0.809351"/>
</svg>
