<svg width="9" height="10" viewBox="0 0 9 10" fill="none" xmlns="http://www.w3.org/2000/svg">
<g clip-path="url(#clip0_414_135)">
<path fill-rule="evenodd" clip-rule="evenodd" d="M0.879131 3.26895C0.745638 3.35053 0.703553 3.52488 0.785132 3.65837C0.866712 3.79186 1.04106 3.83395 1.17456 3.75237L4.83066 1.51809L8.48677 3.75237C8.62026 3.83395 8.79461 3.79186 8.87619 3.65837C8.95777 3.52488 8.91568 3.35053 8.78219 3.26895L4.97837 0.944393C4.8877 0.888978 4.77363 0.888978 4.68295 0.944393L0.879131 3.26895ZM2.15553 4.99025C2.15553 4.83381 2.0287 4.70698 1.87226 4.70698C1.71581 4.70698 1.58898 4.83381 1.58898 4.99025V7.46317C1.58898 7.88781 1.93322 8.23205 2.35787 8.23205H7.3037C7.72834 8.23205 8.07258 7.88781 8.07258 7.46317V4.99025C8.07258 4.83381 7.94575 4.70698 7.78931 4.70698C7.63286 4.70698 7.50603 4.83381 7.50603 4.99025V7.46317C7.50603 7.57491 7.41544 7.6655 7.3037 7.6655H2.35787C2.24612 7.6655 2.15553 7.57491 2.15553 7.46317V4.99025Z" fill="white"/>
</g>
<defs>
<clipPath id="clip0_414_135">
<rect width="8.09351" height="8.09351" fill="white" transform="translate(0.783936 0.943237)"/>
</clipPath>
</defs>
</svg>
