<svg width="18" height="18" viewBox="0 0 18 18" fill="none" xmlns="http://www.w3.org/2000/svg">
<path d="M11.5 2.33329V0.666626M11.5 2.33329V3.99996M11.5 2.33329H7.75M1.5 7.33329V14.8333C1.5 15.2753 1.67559 15.6992 1.98816 16.0118C2.30072 16.3244 2.72464 16.5 3.16667 16.5H14.8333C15.2754 16.5 15.6993 16.3244 16.0118 16.0118C16.3244 15.6992 16.5 15.2753 16.5 14.8333V7.33329M1.5 7.33329H16.5M1.5 7.33329V3.99996C1.5 3.55793 1.67559 3.13401 1.98816 2.82145C2.30072 2.50889 2.72464 2.33329 3.16667 2.33329H4.83333M16.5 7.33329V3.99996C16.5 3.55793 16.3244 3.13401 16.0118 2.82145C15.6993 2.50889 15.2754 2.33329 14.8333 2.33329H14.4167M4.83333 0.666626V3.99996" stroke="#3B505A" stroke-width="1.25" stroke-linecap="round" stroke-linejoin="round"/>
</svg>
