<svg width="20" height="20" viewBox="0 0 20 20" fill="none" xmlns="http://www.w3.org/2000/svg">
<path d="M17.5 16.6667C17.5 16.8877 17.4122 17.0996 17.2559 17.2559C17.0996 17.4122 16.8877 17.5 16.6667 17.5H3.33333C3.11232 17.5 2.90036 17.4122 2.74408 17.2559C2.5878 17.0996 2.5 16.8877 2.5 16.6667V7.90833C2.49991 7.78134 2.52885 7.65601 2.5846 7.54191C2.64035 7.42781 2.72143 7.32796 2.82167 7.24999L9.48833 2.06416C9.63462 1.95036 9.81467 1.88858 10 1.88858C10.1853 1.88858 10.3654 1.95036 10.5117 2.06416L17.1783 7.24999C17.2786 7.32796 17.3597 7.42781 17.4154 7.54191C17.4712 7.65601 17.5001 7.78134 17.5 7.90833V16.6667ZM9.16667 10.8333V15.8333H10.8333V10.8333H9.16667Z" fill="#516278"/>
</svg>
