<svg width="17" height="15" viewBox="0 0 17 15" fill="none" xmlns="http://www.w3.org/2000/svg">
<path d="M2.91667 3.33333C2.91667 2.7808 3.13616 2.25089 3.52686 1.86019C3.91756 1.46949 4.44747 1.25 5 1.25C5.55253 1.25 6.08244 1.46949 6.47314 1.86019C6.86384 2.25089 7.08333 2.7808 7.08333 3.33333C7.08333 3.88587 6.86384 4.41577 6.47314 4.80647C6.08244 5.19717 5.55253 5.41667 5 5.41667C4.44747 5.41667 3.91756 5.19717 3.52686 4.80647C3.13616 4.41577 2.91667 3.88587 2.91667 3.33333ZM5 0C4.11594 0 3.2681 0.351189 2.64298 0.976311C2.01786 1.60143 1.66667 2.44928 1.66667 3.33333C1.66667 4.21739 2.01786 5.06523 2.64298 5.69036C3.2681 6.31548 4.11594 6.66667 5 6.66667C5.88405 6.66667 6.7319 6.31548 7.35702 5.69036C7.98214 5.06523 8.33333 4.21739 8.33333 3.33333C8.33333 2.44928 7.98214 1.60143 7.35702 0.976311C6.7319 0.351189 5.88405 0 5 0ZM11.25 4.16667C11.25 3.83515 11.3817 3.5172 11.6161 3.28278C11.8505 3.04836 12.1685 2.91667 12.5 2.91667C12.8315 2.91667 13.1495 3.04836 13.3839 3.28278C13.6183 3.5172 13.75 3.83515 13.75 4.16667C13.75 4.49819 13.6183 4.81613 13.3839 5.05055C13.1495 5.28497 12.8315 5.41667 12.5 5.41667C12.1685 5.41667 11.8505 5.28497 11.6161 5.05055C11.3817 4.81613 11.25 4.49819 11.25 4.16667ZM12.5 1.66667C11.837 1.66667 11.2011 1.93006 10.7322 2.3989C10.2634 2.86774 10 3.50363 10 4.16667C10 4.82971 10.2634 5.46559 10.7322 5.93443C11.2011 6.40327 11.837 6.66667 12.5 6.66667C13.163 6.66667 13.7989 6.40327 14.2678 5.93443C14.7366 5.46559 15 4.82971 15 4.16667C15 3.50363 14.7366 2.86774 14.2678 2.3989C13.7989 1.93006 13.163 1.66667 12.5 1.66667ZM10.2067 12.5317C10.7925 12.7692 11.5433 12.9167 12.5008 12.9167C14.4025 12.9167 15.4892 12.3358 16.0817 11.6183C16.3692 11.27 16.515 10.9183 16.59 10.6492C16.6327 10.4932 16.6587 10.3331 16.6675 10.1717V10.1492C16.6675 9.91071 16.6205 9.67458 16.5293 9.45428C16.438 9.23397 16.3043 9.03379 16.1357 8.86518C15.967 8.69656 15.7669 8.56281 15.5466 8.47156C15.3262 8.3803 15.0901 8.33333 14.8517 8.33333H10.15C10.1267 8.33333 10.1042 8.33333 10.0817 8.335C10.41 8.67667 10.6483 9.10583 10.7617 9.58333H14.8517C15.1617 9.58333 15.4133 9.8325 15.4175 10.1408C15.4116 10.2006 15.4004 10.2597 15.3842 10.3175C15.3327 10.5028 15.2417 10.6748 15.1175 10.8217C14.8258 11.1767 14.1408 11.6667 12.5008 11.6667C11.6842 11.6667 11.1042 11.545 10.6925 11.3792C10.6025 11.7125 10.4542 12.115 10.2067 12.5317ZM1.875 8.33333C1.37772 8.33333 0.900805 8.53088 0.549175 8.88251C0.197544 9.23414 0 9.71105 0 10.2083V10.44C0.000979387 10.4979 0.00487315 10.5558 0.0116666 10.6133C0.0804829 11.2334 0.303363 11.8264 0.66 12.3383C1.34167 13.3117 2.64333 14.1667 5 14.1667C7.35667 14.1667 8.65833 13.3125 9.34 12.3375C9.69673 11.8256 9.91962 11.2326 9.98833 10.6125C9.99422 10.5552 9.99811 10.4976 10 10.44V10.2083C10 9.71105 9.80246 9.23414 9.45082 8.88251C9.09919 8.53088 8.62228 8.33333 8.125 8.33333H1.875ZM1.25 10.4225V10.2083C1.25 10.0426 1.31585 9.8836 1.43306 9.76639C1.55027 9.64918 1.70924 9.58333 1.875 9.58333H8.125C8.29076 9.58333 8.44973 9.64918 8.56694 9.76639C8.68415 9.8836 8.75 10.0426 8.75 10.2083V10.4225L8.74417 10.4892C8.69668 10.8959 8.54955 11.2846 8.31583 11.6208C7.905 12.2083 7.01833 12.9167 5 12.9167C2.98167 12.9167 2.095 12.2083 1.68333 11.6208C1.44991 11.2845 1.30307 10.8958 1.25583 10.4892C1.2533 10.467 1.25136 10.4448 1.25 10.4225Z" fill="#3B505A"/>
</svg>
