<svg width="9" height="10" viewBox="0 0 9 10" fill="none" xmlns="http://www.w3.org/2000/svg">
<g clip-path="url(#clip0_482_104)">
<path fill-rule="evenodd" clip-rule="evenodd" d="M5.83689 3.03269C5.83689 2.61614 6.17457 2.27846 6.59112 2.27846C7.00768 2.27846 7.34536 2.61614 7.34536 3.03269C7.34536 3.4435 7.01694 3.77759 6.60833 3.78674C6.60259 3.78669 6.59684 3.78667 6.59108 3.78667C6.58535 3.78667 6.57961 3.78669 6.57389 3.78674C6.1653 3.77758 5.83689 3.44349 5.83689 3.03269ZM5.69059 3.99888C5.43202 3.75778 5.27034 3.41412 5.27034 3.03269C5.27034 2.30325 5.86167 1.71191 6.59112 1.71191C7.32057 1.71191 7.9119 2.30325 7.9119 3.03269C7.9119 3.41413 7.75021 3.75781 7.49162 3.99891C8.15093 4.32938 8.60351 5.01138 8.60351 5.79909V5.97201C8.60351 6.12845 8.47668 6.25528 8.32023 6.25528C8.16379 6.25528 8.03696 6.12845 8.03696 5.97201V5.79909C8.03696 5.00702 7.40005 4.3637 6.61044 4.35334C6.60401 4.35343 6.59757 4.35348 6.59112 4.35348C6.58466 4.35348 6.57821 4.35343 6.57177 4.35334C5.80731 4.36335 5.18598 4.96662 5.14713 5.72379C5.57617 6.20238 5.83713 6.83478 5.83713 7.52813V7.87396C5.83713 8.0304 5.7103 8.15723 5.55385 8.15723C5.39741 8.15723 5.27058 8.0304 5.27058 7.87396V7.52813C5.27058 6.35562 4.32654 5.40361 3.15709 5.39072L3.13283 5.39089L3.10876 5.39072C1.93941 5.40374 0.995501 6.3557 0.995501 7.52813V7.87396C0.995501 8.0304 0.868675 8.15723 0.712228 8.15723C0.555781 8.15723 0.428955 8.0304 0.428955 7.87396V7.52813C0.428955 6.40183 1.11754 5.43637 2.0967 5.02975C1.71254 4.72444 1.46623 4.25313 1.46623 3.7243C1.46623 2.80386 2.21239 2.05771 3.13283 2.05771C4.05326 2.05771 4.79942 2.80386 4.79942 3.7243C4.79942 4.25307 4.55317 4.72432 4.1691 5.02963C4.33683 5.09926 4.49604 5.1853 4.64473 5.28573C4.79302 4.72197 5.17976 4.25491 5.69059 3.99888ZM3.13283 2.62425C2.52529 2.62425 2.03278 3.11676 2.03278 3.7243C2.03278 4.32448 2.51343 4.8124 3.1108 4.82413L3.13304 4.82404L3.15498 4.82413C3.75229 4.81233 4.23288 4.32444 4.23288 3.7243C4.23288 3.11676 3.74037 2.62425 3.13283 2.62425Z" fill="white"/>
</g>
<defs>
<clipPath id="clip0_482_104">
<rect width="8.09351" height="8.09351" fill="white" transform="translate(0.469482 0.943237)"/>
</clipPath>
</defs>
</svg>
