<svg width="17" height="20" viewBox="0 0 17 20" fill="none" xmlns="http://www.w3.org/2000/svg">
<path d="M8.5 18.9986C10.752 17.1349 12.532 15.2396 13.8401 13.3128C15.1481 11.3853 15.8021 9.71823 15.8021 8.31169C15.8021 6.22769 15.1086 4.50748 13.7215 3.15106C12.3343 1.79464 10.5939 1.11681 8.5 1.11757C6.40694 1.11757 4.66645 1.7954 3.27854 3.15106C1.89062 4.50672 1.19706 6.22693 1.19786 8.31169C1.19786 9.71823 1.85189 11.3853 3.15995 13.3128C4.46881 15.2396 6.24883 17.1356 8.5 18.9986ZM8.5 20C8.31234 20 8.12467 19.9708 7.93701 19.9123C7.75014 19.8538 7.57765 19.7589 7.41953 19.6275C6.56746 18.8832 5.7038 18.0535 4.82857 17.1383C3.95253 16.2239 3.15715 15.2772 2.44243 14.2982C1.72771 13.3185 1.14196 12.3187 0.685175 11.2987C0.228392 10.2787 0 9.28306 0 8.31169C0 5.90188 0.824925 3.91433 2.47477 2.34905C4.12542 0.783018 6.13383 0 8.5 0C10.8662 0 12.8746 0.783018 14.5252 2.34905C16.1751 3.91433 17 5.90188 17 8.31169C17 9.28306 16.7716 10.2753 16.3148 11.2884C15.858 12.3008 15.2759 13.3003 14.5683 14.2869C13.8616 15.2742 13.0706 16.2212 12.1954 17.128C11.3194 18.0349 10.4553 18.8608 9.60323 19.6058C9.4507 19.7372 9.27741 19.836 9.08336 19.902C8.88851 19.9673 8.69405 20 8.5 20ZM8.50359 9.94646C9.03704 9.94646 9.49223 9.7657 9.86915 9.40419C10.2461 9.04344 10.4345 8.6094 10.4345 8.10207C10.4345 7.59474 10.2449 7.16184 9.86556 6.80337C9.48544 6.4449 9.02905 6.26566 8.49641 6.26566C7.96376 6.26566 7.50857 6.44642 7.13085 6.80793C6.75392 7.16868 6.56546 7.60272 6.56546 8.11005C6.56546 8.61738 6.75512 9.05028 7.13444 9.40875C7.51456 9.76722 7.97095 9.94646 8.50359 9.94646Z" fill="#3B505A"/>
</svg>
