<svg width="172" height="109" viewBox="0 0 172 109" fill="none" xmlns="http://www.w3.org/2000/svg">
<path d="M25.6405 29.5894C25.6405 28.2362 25.409 27.0966 24.9461 26.1707C24.5188 25.2092 23.9312 24.4257 23.1833 23.8203C22.4711 23.1793 21.652 22.7164 20.7261 22.4315C19.8002 22.1466 18.8743 22.0042 17.9484 22.0042C16.7377 22.0042 15.5803 22.2534 14.4763 22.752C13.3724 23.215 12.4109 23.8916 11.5918 24.7819C10.8083 25.6721 10.1673 26.7583 9.66878 28.0403C9.20583 29.3223 8.97436 30.7646 8.97436 32.3671V45.9351H5.23516V5.87218H8.97436V24.034C9.90026 22.5383 11.111 21.2563 12.6067 20.188C14.1024 19.1196 16.0254 18.5855 18.3758 18.5855C19.9427 18.5855 21.3849 18.8169 22.7026 19.2799C24.0558 19.7428 25.2132 20.4373 26.1747 21.3632C27.1718 22.2891 27.9553 23.4464 28.525 24.8353C29.0948 26.1885 29.3797 27.7732 29.3797 29.5894V45.9351H25.6405V29.5894ZM39.8895 59.9304C38.6431 59.9304 37.468 59.6455 36.364 59.0757C35.2601 58.5415 34.2985 57.8827 33.4795 57.0992L34.8149 54.9626C35.7764 55.568 36.6133 55.9775 37.3255 56.1912C38.0378 56.4048 38.6253 56.5117 39.0883 56.5117C39.8717 56.5117 40.5662 56.2802 41.1716 55.8172C41.8126 55.3899 42.4002 54.7845 42.9343 54.0011C43.4685 53.2532 43.9671 52.3629 44.43 51.3302C44.9286 50.3331 45.4093 49.2469 45.8723 48.0717L46.353 46.8966L34.2807 19.2265H38.3404L48.0624 41.8754L56.6091 19.2265H60.6688L49.4512 48.6059C48.9527 49.9592 48.4363 51.2946 47.9021 52.6122C47.368 53.9654 46.7269 55.1762 45.9791 56.2446C45.2669 57.3485 44.4122 58.2388 43.4151 58.9154C42.4536 59.592 41.2784 59.9304 39.8895 59.9304ZM63.3292 19.2265H68.8312V9.87847H72.5704V19.2265H83.8414V22.6452H72.5704V37.9225C72.5704 39.525 72.9621 40.807 73.7456 41.7685C74.529 42.6944 75.8111 43.1574 77.5916 43.1574C78.6244 43.1574 79.6571 43.0149 80.6898 42.73C81.7582 42.4095 82.7909 41.9822 83.788 41.448L85.0166 43.6381C83.7702 44.7065 82.4526 45.4721 81.0637 45.9351C79.7105 46.3624 78.3573 46.5761 77.004 46.5761C74.4044 46.5761 72.3924 45.846 70.9679 44.386C69.5434 42.8903 68.8312 40.7002 68.8312 37.8156V22.6452H63.3292V19.2265ZM87.1687 19.2265H92.6707V9.87847H96.4099V19.2265H107.681V22.6452H96.4099V37.9225C96.4099 39.525 96.8016 40.807 97.5851 41.7685C98.3685 42.6944 99.6506 43.1574 101.431 43.1574C102.464 43.1574 103.497 43.0149 104.529 42.73C105.598 42.4095 106.63 41.9822 107.628 41.448L108.856 43.6381C107.61 44.7065 106.292 45.4721 104.903 45.9351C103.55 46.3624 102.197 46.5761 100.844 46.5761C98.2439 46.5761 96.2319 45.846 94.8074 44.386C93.3829 42.8903 92.6707 40.7002 92.6707 37.8156V22.6452H87.1687V19.2265ZM125.764 46.5761C123.663 46.5761 121.74 46.22 119.995 45.5077C118.286 44.7955 116.808 43.8162 115.561 42.5698C114.315 41.3234 113.353 39.8455 112.677 38.1362C112 36.4268 111.662 34.575 111.662 32.5808C111.662 30.5865 112.018 28.7347 112.73 27.0254C113.442 25.316 114.422 23.8382 115.668 22.5918C116.914 21.3454 118.375 20.366 120.048 19.6538C121.758 18.9416 123.592 18.5855 125.55 18.5855C127.366 18.5855 129.076 18.8882 130.678 19.4936C132.281 20.0633 133.67 20.9358 134.845 22.111C136.02 23.2862 136.946 24.7462 137.623 26.4912C138.335 28.2362 138.691 30.266 138.691 32.5808C138.691 32.9013 138.691 33.1862 138.691 33.4354C138.691 33.6847 138.655 33.9518 138.584 34.2367H115.508C115.864 36.9076 117.003 39.0799 118.927 40.7536C120.85 42.4273 123.325 43.2642 126.351 43.2642C127.847 43.2642 129.414 43.0505 131.052 42.6232C132.69 42.1602 134.239 41.5014 135.699 40.6468L137.195 42.9971C135.735 44.0298 134.079 44.8845 132.227 45.5611C130.376 46.2378 128.221 46.5761 125.764 46.5761ZM135.005 30.9248C134.934 29.536 134.631 28.2896 134.097 27.1856C133.598 26.0461 132.922 25.1024 132.067 24.3545C131.248 23.5711 130.269 22.9657 129.129 22.5383C128.025 22.111 126.832 21.8973 125.55 21.8973C124.233 21.8973 122.986 22.1288 121.811 22.5918C120.671 23.0191 119.657 23.6245 118.766 24.4079C117.912 25.1914 117.199 26.1351 116.63 27.239C116.06 28.343 115.686 29.5716 115.508 30.9248H135.005Z" fill="white"/>
<path d="M6.22034 86.1301H2.83435V73.0841H6.22034V73.4113H4.57002C4.28549 73.4113 4.08868 73.4493 3.97961 73.5251C3.87054 73.5963 3.80177 73.7006 3.77332 73.8381C3.74961 73.9709 3.73775 74.2839 3.73775 74.7771V84.43C3.73775 84.909 3.74961 85.2173 3.77332 85.3548C3.79703 85.497 3.86105 85.6061 3.96538 85.682C4.07446 85.7626 4.276 85.8029 4.57002 85.8029H6.22034V86.1301ZM7.69282 72.3372V74.8411H6.97437V72.3372H7.69282ZM11.0646 77.8643C11.3491 77.466 11.6669 77.1672 12.0178 76.968C12.3735 76.7689 12.7623 76.6693 13.1844 76.6693C13.6634 76.6693 14.0593 76.7689 14.3723 76.968C14.6901 77.1672 14.8964 77.4138 14.9912 77.7078C15.0861 77.9971 15.1335 78.469 15.1335 79.1234V80.731C15.1335 81.4139 15.1453 81.8289 15.169 81.9759C15.1975 82.1229 15.2757 82.232 15.4038 82.3031C15.5318 82.3695 15.7689 82.4027 16.1151 82.4027V82.7299H13.1061V82.4027H13.2413C13.5875 82.4027 13.8104 82.3529 13.91 82.2533C14.0143 82.1537 14.0736 82.0375 14.0878 81.9048C14.1068 81.7672 14.1163 81.376 14.1163 80.731V78.9811C14.1163 78.4974 14.0878 78.1394 14.0309 77.907C13.974 77.6746 13.8388 77.4826 13.6254 77.3308C13.4168 77.1791 13.1536 77.1032 12.8358 77.1032C12.4659 77.1032 12.134 77.2123 11.84 77.4304C11.5459 77.6438 11.2875 77.9663 11.0646 78.3978V80.731C11.0646 81.3855 11.0741 81.7886 11.093 81.9403C11.1168 82.0921 11.1903 82.2083 11.3136 82.2889C11.4369 82.3648 11.6621 82.4027 11.9893 82.4027V82.7299H9.03015V82.4027H9.17953C9.52098 82.4027 9.74149 82.3553 9.84108 82.2604C9.94541 82.1608 10.0047 82.0447 10.0189 81.9119C10.0379 81.7743 10.0474 81.3807 10.0474 80.731V74.9265C10.0474 74.3384 9.99046 73.9662 9.87665 73.8097C9.76758 73.6532 9.50201 73.5749 9.07994 73.5749V73.2477C9.815 73.2477 10.4268 73.1481 10.9152 72.9489H11.0646V77.8643ZM19.7928 81.6273L21.1443 78.3907C21.3388 77.9165 21.436 77.6533 21.436 77.6011C21.436 77.364 21.1728 77.2407 20.6464 77.2312V76.904H22.6951V77.2312C22.3773 77.2455 22.145 77.3308 21.9979 77.4873C21.8509 77.6391 21.6684 77.9781 21.4502 78.5045L18.8538 84.7715C18.6072 85.369 18.3891 85.7745 18.1994 85.9879C18.0097 86.206 17.801 86.3151 17.5734 86.3151C17.2651 86.3151 17.111 86.1752 17.111 85.8954C17.111 85.5729 17.3576 85.3002 17.8508 85.0774C18.1401 84.9493 18.3322 84.8402 18.427 84.7501C18.5266 84.66 18.6238 84.4964 18.7186 84.2593L19.2735 82.8722L17.0826 78.1773C16.8881 77.7647 16.7269 77.5039 16.5988 77.3948C16.4708 77.2858 16.2527 77.2312 15.9444 77.2312V76.904H18.6191V77.2312C18.1496 77.2455 17.9148 77.3427 17.9148 77.5229C17.9148 77.594 18.0073 77.8264 18.1923 78.22L19.7928 81.6273ZM27.8879 77.5229V75.2466C27.8879 74.6253 27.8784 74.2341 27.8594 74.0729C27.8452 73.9116 27.7788 73.7883 27.6602 73.703C27.5417 73.6176 27.3307 73.5749 27.0271 73.5749H26.8778V73.2477C27.4516 73.2335 28.0799 73.1339 28.7628 72.9489H28.9122V80.7808C28.9122 81.459 28.9241 81.8716 28.9478 82.0186C28.9715 82.1656 29.045 82.2747 29.1683 82.3458C29.2963 82.4169 29.5311 82.4525 29.8725 82.4525V82.7797C29.1849 82.7939 28.5731 82.8556 28.0373 82.9647C27.9803 82.7418 27.9519 82.3908 27.9519 81.9119C27.601 82.2628 27.2382 82.526 26.8635 82.7015C26.4936 82.8769 26.1095 82.9647 25.7112 82.9647C24.9571 82.9647 24.3051 82.6612 23.755 82.0541C23.2096 81.4471 22.9369 80.7121 22.9369 79.849C22.9369 78.9005 23.2167 78.1346 23.7763 77.5513C24.3359 76.9633 25.0022 76.6693 25.7752 76.6693C26.1688 76.6693 26.5411 76.7404 26.892 76.8827C27.2429 77.0249 27.5749 77.2383 27.8879 77.5229ZM27.8879 77.9355C27.5749 77.6652 27.2595 77.4636 26.9418 77.3308C26.6288 77.1933 26.3134 77.1245 25.9957 77.1245C25.4598 77.1245 25.0117 77.3308 24.6513 77.7434C24.2956 78.156 24.1177 78.8294 24.1177 79.7636C24.1177 80.7121 24.3003 81.4116 24.6655 81.8621C25.0354 82.3126 25.4906 82.5379 26.0313 82.5379C26.3917 82.5379 26.726 82.4525 27.0343 82.2818C27.3425 82.1111 27.627 81.855 27.8879 81.5135V77.9355ZM25.0638 85.0347C25.0638 84.679 25.1919 84.3755 25.448 84.1242C25.6993 83.8728 26.0004 83.7471 26.3514 83.7471C26.707 83.7471 27.0105 83.8728 27.2619 84.1242C27.5132 84.3802 27.6389 84.6837 27.6389 85.0347C27.6389 85.3856 27.5132 85.6867 27.2619 85.9381C27.0058 86.1942 26.7023 86.3222 26.3514 86.3222C25.9862 86.3222 25.6803 86.1942 25.4337 85.9381C25.1871 85.682 25.0638 85.3809 25.0638 85.0347ZM25.4693 85.0347C25.4693 85.2765 25.557 85.4828 25.7325 85.6535C25.9032 85.829 26.1095 85.9167 26.3514 85.9167C26.5932 85.9167 26.8019 85.829 26.9773 85.6535C27.1481 85.4828 27.2334 85.2765 27.2334 85.0347C27.2334 84.7928 27.1481 84.5842 26.9773 84.4087C26.8066 84.2332 26.598 84.1455 26.3514 84.1455C26.0953 84.1455 25.8843 84.2332 25.7183 84.4087C25.5523 84.5889 25.4693 84.7976 25.4693 85.0347ZM34.6741 80.7595C34.6883 80.622 34.6954 80.501 34.6954 80.3967C34.6954 80.2876 34.6978 80.1999 34.7025 80.1335C34.7025 78.0801 34.0647 77.0534 32.789 77.0534C31.9259 77.0534 31.3142 77.4399 30.9538 78.2129H30.6123C30.6882 77.971 30.8044 77.7553 30.9609 77.5656C31.1174 77.3711 31.3023 77.2099 31.5157 77.0819C31.7291 76.9491 31.9615 76.8471 32.2128 76.776C32.4642 76.7048 32.7226 76.6693 32.9882 76.6693C33.3486 76.6693 33.7019 76.7404 34.0481 76.8827C34.3943 77.0202 34.7025 77.2194 34.9729 77.4802C35.2479 77.741 35.4684 78.0611 35.6344 78.4405C35.8004 78.8152 35.8834 79.2396 35.8834 79.7138C35.8834 80.1786 35.8122 80.6101 35.67 81.0085C35.5277 81.4021 35.3285 81.7435 35.0724 82.0328C34.8211 82.3221 34.5223 82.5497 34.1761 82.7157C33.83 82.8817 33.4529 82.9647 33.0451 82.9647C32.2863 82.9647 31.6959 82.7323 31.2739 82.2675C30.8565 81.8075 30.636 81.3049 30.6123 80.7595H34.6741ZM31.8572 81.044C31.8429 81.1531 31.8358 81.2503 31.8358 81.3357C31.8358 81.5443 31.869 81.7317 31.9354 81.8976C32.0018 82.0589 32.0919 82.1964 32.2057 82.3102C32.3195 82.4193 32.4523 82.5047 32.6041 82.5663C32.7606 82.6232 32.9266 82.6517 33.102 82.6517C33.9699 82.6517 34.4844 82.1158 34.6456 81.044H31.8572ZM36.0968 86.1301V85.8029H37.7471C38.0316 85.8029 38.2284 85.765 38.3375 85.6891C38.4466 85.6132 38.513 85.5065 38.5367 85.369C38.5651 85.2362 38.5794 84.9232 38.5794 84.43V74.7771C38.5794 74.3029 38.5675 73.997 38.5438 73.8595C38.5201 73.7172 38.4537 73.6081 38.3446 73.5322C38.2403 73.4516 38.0411 73.4113 37.7471 73.4113H36.0968V73.0841H39.4828V86.1301H36.0968Z" fill="white"/>
<path d="M44.7452 104.836C44.3297 104.836 43.9483 104.761 43.6008 104.61C43.2533 104.459 42.9511 104.251 42.6943 103.986C42.445 103.722 42.2486 103.409 42.1051 103.046C41.9691 102.683 41.9011 102.291 41.9011 101.868C41.9011 101.445 41.9729 101.052 42.1164 100.689C42.2675 100.327 42.4715 100.013 42.7283 99.7487C42.9927 99.4843 43.2986 99.2766 43.6461 99.1255C44.0011 98.9744 44.3864 98.8989 44.8019 98.8989C45.1947 98.8989 45.5686 98.9669 45.9236 99.1028C46.2787 99.2388 46.6035 99.4314 46.8981 99.6807L46.6261 100.191C46.3466 100.017 46.0709 99.8809 45.799 99.7827C45.527 99.6769 45.2324 99.6241 44.9152 99.6241C44.5904 99.6241 44.292 99.6807 44.02 99.794C43.7481 99.9073 43.5139 100.066 43.3175 100.27C43.1287 100.466 42.9814 100.701 42.8756 100.972C42.7699 101.244 42.717 101.543 42.717 101.868C42.717 102.192 42.7661 102.491 42.8643 102.763C42.9625 103.035 43.106 103.273 43.2949 103.477C43.4837 103.673 43.7103 103.828 43.9747 103.941C44.2391 104.054 44.5337 104.111 44.8585 104.111C45.1078 104.111 45.3986 104.073 45.731 103.998C46.0634 103.915 46.3995 103.775 46.7394 103.579L47.0567 104.077C46.7923 104.258 46.4713 104.432 46.0936 104.598C45.7159 104.757 45.2664 104.836 44.7452 104.836ZM50.7893 104.836C50.3738 104.836 49.9848 104.761 49.6222 104.61C49.2672 104.459 48.9574 104.251 48.6931 103.986C48.4287 103.722 48.2209 103.409 48.0699 103.046C47.9188 102.683 47.8432 102.291 47.8432 101.868C47.8432 101.445 47.9188 101.052 48.0699 100.689C48.2209 100.327 48.4287 100.013 48.6931 99.7487C48.9574 99.4843 49.2672 99.2766 49.6222 99.1255C49.9848 98.9744 50.3738 98.8989 50.7893 98.8989C51.2047 98.8989 51.59 98.9744 51.945 99.1255C52.3076 99.2766 52.6211 99.4843 52.8855 99.7487C53.1499 100.013 53.3576 100.327 53.5087 100.689C53.6598 101.052 53.7353 101.445 53.7353 101.868C53.7353 102.291 53.6598 102.683 53.5087 103.046C53.3576 103.409 53.1499 103.722 52.8855 103.986C52.6211 104.251 52.3076 104.459 51.945 104.61C51.59 104.761 51.2047 104.836 50.7893 104.836ZM50.7893 104.111C51.099 104.111 51.3823 104.054 51.6391 103.941C51.9035 103.828 52.1301 103.673 52.3189 103.477C52.5078 103.273 52.6551 103.035 52.7609 102.763C52.8666 102.491 52.9195 102.192 52.9195 101.868C52.9195 101.543 52.8666 101.244 52.7609 100.972C52.6551 100.701 52.5078 100.466 52.3189 100.27C52.1301 100.066 51.9035 99.9073 51.6391 99.794C51.3823 99.6807 51.099 99.6241 50.7893 99.6241C50.4796 99.6241 50.1925 99.6807 49.9281 99.794C49.6713 99.9073 49.4485 100.066 49.2596 100.27C49.0708 100.466 48.9235 100.701 48.8177 100.972C48.7119 101.244 48.6591 101.543 48.6591 101.868C48.6591 102.192 48.7119 102.491 48.8177 102.763C48.9235 103.035 49.0708 103.273 49.2596 103.477C49.4485 103.673 49.6713 103.828 49.9281 103.941C50.1925 104.054 50.4796 104.111 50.7893 104.111ZM54.4877 99.0349H55.6548V97.052H56.4479V99.0349H58.8387V99.76H56.4479V103.001C56.4479 103.341 56.531 103.613 56.6972 103.817C56.8634 104.013 57.1353 104.111 57.513 104.111C57.7321 104.111 57.9512 104.081 58.1702 104.02C58.3968 103.952 58.6159 103.862 58.8274 103.749L59.088 104.213C58.8236 104.44 58.5441 104.602 58.2495 104.7C57.9625 104.791 57.6754 104.836 57.3884 104.836C56.8369 104.836 56.4101 104.681 56.108 104.372C55.8058 104.054 55.6548 103.59 55.6548 102.978V99.76H54.4877V99.0349ZM59.5445 99.0349H60.7116V97.052H61.5048V99.0349H63.8956V99.76H61.5048V103.001C61.5048 103.341 61.5879 103.613 61.7541 103.817C61.9202 104.013 62.1922 104.111 62.5699 104.111C62.789 104.111 63.008 104.081 63.2271 104.02C63.4537 103.952 63.6728 103.862 63.8843 103.749L64.1449 104.213C63.8805 104.44 63.601 104.602 63.3064 104.7C63.0193 104.791 62.7323 104.836 62.4452 104.836C61.8938 104.836 61.467 104.681 61.1649 104.372C60.8627 104.054 60.7116 103.59 60.7116 102.978V99.76H59.5445V99.0349ZM66.7316 104.836C66.4294 104.836 66.1575 104.791 65.9158 104.7C65.6741 104.61 65.4663 104.489 65.2926 104.338C65.1264 104.179 64.998 103.998 64.9073 103.794C64.8242 103.582 64.7827 103.356 64.7827 103.114C64.7827 102.797 64.8696 102.502 65.0433 102.23C65.217 101.951 65.4777 101.717 65.8251 101.528C66.1726 101.339 66.6032 101.199 67.1169 101.108C67.6381 101.018 68.2424 101.003 68.9298 101.063L69.0658 101.074V100.916C69.0658 100.667 69.0242 100.459 68.9411 100.293C68.858 100.126 68.7485 99.9942 68.6125 99.896C68.4766 99.7903 68.3142 99.7147 68.1253 99.6694C67.944 99.6241 67.7514 99.6014 67.5474 99.6014C67.2151 99.6014 66.8676 99.6505 66.505 99.7487C66.1424 99.8469 65.7836 99.9942 65.4286 100.191L65.1566 99.6807C65.4739 99.4768 65.8365 99.2955 66.2444 99.1368C66.6598 98.9782 67.1244 98.8989 67.6381 98.8989C67.9251 98.8989 68.2008 98.9329 68.4652 99.0009C68.7296 99.0613 68.9638 99.1708 69.1678 99.3295C69.3717 99.4805 69.5341 99.6845 69.655 99.9413C69.7758 100.198 69.8363 100.523 69.8363 100.916V104.7H69.0658V103.749C68.9902 103.892 68.8694 104.028 68.7032 104.156C68.5446 104.285 68.3595 104.402 68.148 104.508C67.944 104.606 67.7174 104.685 67.4681 104.746C67.2264 104.806 66.9809 104.836 66.7316 104.836ZM66.8562 104.134C67.0753 104.134 67.3133 104.1 67.5701 104.032C67.8345 103.964 68.0762 103.843 68.2953 103.669C68.5143 103.488 68.6956 103.242 68.8392 102.933C68.9902 102.615 69.0658 102.215 69.0658 101.732L68.9298 101.72C68.3708 101.675 67.8798 101.683 67.4568 101.743C67.0413 101.796 66.6938 101.89 66.4143 102.026C66.1348 102.155 65.9233 102.317 65.7798 102.513C65.6438 102.71 65.5759 102.925 65.5759 103.159C65.5759 103.499 65.6967 103.749 65.9384 103.907C66.1877 104.058 66.4937 104.134 66.8562 104.134ZM76.2452 99.0349H77.0384V104.814C77.0384 105.35 76.9553 105.799 76.7891 106.162C76.6229 106.532 76.4039 106.827 76.1319 107.046C75.86 107.272 75.5503 107.431 75.2028 107.522C74.8629 107.62 74.5154 107.669 74.1603 107.669C73.8053 107.669 73.488 107.631 73.2086 107.556C72.9291 107.488 72.6798 107.397 72.4607 107.284C72.2416 107.17 72.049 107.042 71.8828 106.899C71.7166 106.755 71.5693 106.611 71.4409 106.468L71.8488 105.992C71.9697 106.098 72.1057 106.204 72.2568 106.309C72.4078 106.423 72.574 106.525 72.7553 106.615C72.9442 106.713 73.1519 106.793 73.3785 106.853C73.6051 106.914 73.8506 106.944 74.115 106.944C74.3567 106.944 74.6023 106.906 74.8515 106.831C75.1008 106.755 75.3274 106.63 75.5314 106.457C75.7429 106.29 75.9129 106.071 76.0413 105.799C76.1772 105.527 76.2452 105.199 76.2452 104.814V103.681C76.147 103.832 76.0224 103.979 75.8713 104.122C75.7202 104.258 75.5465 104.379 75.3501 104.485C75.1612 104.591 74.9535 104.674 74.7269 104.734C74.5003 104.802 74.2585 104.836 74.0017 104.836C73.6089 104.836 73.2388 104.761 72.8913 104.61C72.5438 104.459 72.2416 104.251 71.9848 103.986C71.7355 103.722 71.5354 103.409 71.3843 103.046C71.2407 102.683 71.169 102.291 71.169 101.868C71.169 101.445 71.2407 101.052 71.3843 100.689C71.5354 100.327 71.7355 100.013 71.9848 99.7487C72.2416 99.4843 72.5438 99.2766 72.8913 99.1255C73.2388 98.9744 73.6089 98.8989 74.0017 98.8989C74.2585 98.8989 74.5003 98.9329 74.7269 99.0009C74.9535 99.0613 75.1612 99.1444 75.3501 99.2501C75.5465 99.3559 75.7202 99.4805 75.8713 99.6241C76.0224 99.76 76.147 99.9036 76.2452 100.055V99.0349ZM74.115 104.111C74.4247 104.111 74.708 104.054 74.9648 103.941C75.2292 103.828 75.4558 103.673 75.6447 103.477C75.8335 103.273 75.9808 103.035 76.0866 102.763C76.1924 102.491 76.2452 102.192 76.2452 101.868C76.2452 101.543 76.1924 101.244 76.0866 100.972C75.9808 100.701 75.8335 100.466 75.6447 100.27C75.4558 100.066 75.2292 99.9073 74.9648 99.794C74.708 99.6807 74.4247 99.6241 74.115 99.6241C73.8053 99.6241 73.5183 99.6807 73.2539 99.794C72.997 99.9073 72.7742 100.066 72.5853 100.27C72.3965 100.466 72.2492 100.701 72.1434 100.972C72.0377 101.244 71.9848 101.543 71.9848 101.868C71.9848 102.192 72.0377 102.491 72.1434 102.763C72.2492 103.035 72.3965 103.273 72.5853 103.477C72.7742 103.673 72.997 103.828 73.2539 103.941C73.5183 104.054 73.8053 104.111 74.115 104.111ZM81.4081 104.836C80.9625 104.836 80.5546 104.761 80.1844 104.61C79.8218 104.459 79.5083 104.251 79.2439 103.986C78.9796 103.722 78.7756 103.409 78.6321 103.046C78.4886 102.683 78.4168 102.291 78.4168 101.868C78.4168 101.445 78.4923 101.052 78.6434 100.689C78.7945 100.327 79.0022 100.013 79.2666 99.7487C79.531 99.4843 79.8407 99.2766 80.1957 99.1255C80.5583 98.9744 80.9474 98.8989 81.3628 98.8989C81.7481 98.8989 82.1107 98.9631 82.4506 99.0915C82.7905 99.2124 83.0851 99.3974 83.3344 99.6467C83.5837 99.896 83.7801 100.206 83.9236 100.576C84.0747 100.946 84.1502 101.377 84.1502 101.868C84.1502 101.936 84.1502 101.996 84.1502 102.049C84.1502 102.102 84.1427 102.158 84.1276 102.219H79.2326C79.3082 102.785 79.5499 103.246 79.9578 103.601C80.3657 103.956 80.8907 104.134 81.5328 104.134C81.8501 104.134 82.1824 104.088 82.5299 103.998C82.8774 103.9 83.206 103.76 83.5157 103.579L83.833 104.077C83.5233 104.296 83.172 104.477 82.7792 104.621C82.3864 104.765 81.9294 104.836 81.4081 104.836ZM83.3684 101.516C83.3533 101.222 83.2891 100.957 83.1758 100.723C83.07 100.481 82.9265 100.281 82.7452 100.123C82.5715 99.9564 82.3637 99.828 82.122 99.7374C81.8878 99.6467 81.6348 99.6014 81.3628 99.6014C81.0833 99.6014 80.8189 99.6505 80.5697 99.7487C80.3279 99.8394 80.1126 99.9678 79.9238 100.134C79.7425 100.3 79.5914 100.5 79.4706 100.734C79.3497 100.969 79.2704 101.229 79.2326 101.516H83.3684ZM85.8481 103.567L86.6413 103.907L85.5082 106.4L84.9416 106.173L85.8481 103.567ZM92.7115 104.836C92.3263 104.836 91.9297 104.783 91.5218 104.678C91.1139 104.564 90.7248 104.364 90.3547 104.077L90.672 103.579C91.0421 103.805 91.4085 103.956 91.7711 104.032C92.1412 104.1 92.4396 104.134 92.6662 104.134C92.8324 104.134 93.0137 104.119 93.2101 104.088C93.4065 104.051 93.5878 103.998 93.754 103.93C93.9202 103.854 94.0599 103.756 94.1732 103.635C94.2865 103.507 94.3432 103.352 94.3432 103.171C94.3432 102.982 94.2865 102.831 94.1732 102.717C94.0599 102.597 93.9164 102.502 93.7426 102.434C93.5765 102.366 93.3989 102.317 93.2101 102.287C93.0212 102.249 92.8475 102.215 92.6889 102.185C92.4623 102.14 92.2167 102.087 91.9524 102.026C91.688 101.958 91.4425 101.868 91.2158 101.754C90.9892 101.633 90.8004 101.479 90.6493 101.29C90.4982 101.093 90.4227 100.848 90.4227 100.553C90.4227 100.251 90.4982 99.9942 90.6493 99.7827C90.8004 99.5712 90.993 99.4012 91.2272 99.2728C91.4614 99.1444 91.7144 99.05 91.9864 98.9895C92.2658 98.9291 92.534 98.8989 92.7908 98.8989C93.5991 98.8989 94.2828 99.1595 94.8417 99.6807L94.5698 100.191C94.0637 99.7978 93.4745 99.6014 92.8022 99.6014C92.5982 99.6014 92.398 99.6203 92.2016 99.6581C92.0128 99.6958 91.8428 99.7525 91.6917 99.828C91.5407 99.9036 91.4198 100.002 91.3292 100.123C91.2385 100.236 91.1932 100.368 91.1932 100.519C91.1932 100.693 91.2498 100.836 91.3632 100.95C91.4765 101.063 91.6162 101.158 91.7824 101.233C91.9486 101.301 92.1185 101.354 92.2923 101.392C92.4736 101.429 92.6284 101.46 92.7569 101.482C93.0212 101.528 93.2932 101.584 93.5727 101.652C93.8522 101.72 94.1052 101.815 94.3319 101.936C94.5585 102.056 94.7435 102.215 94.8871 102.411C95.0381 102.608 95.1137 102.861 95.1137 103.171C95.1137 103.48 95.0381 103.741 94.8871 103.952C94.736 104.164 94.5434 104.338 94.3092 104.474C94.075 104.602 93.8144 104.693 93.5274 104.746C93.2479 104.806 92.9759 104.836 92.7115 104.836ZM101.505 104.7H100.712V103.681C100.516 103.998 100.259 104.27 99.9417 104.496C99.6245 104.723 99.2165 104.836 98.718 104.836C98.3856 104.836 98.0759 104.787 97.7888 104.689C97.5093 104.591 97.2638 104.443 97.0523 104.247C96.8484 104.051 96.686 103.809 96.5651 103.522C96.4442 103.227 96.3838 102.887 96.3838 102.502V99.0349H97.177V102.502C97.177 102.789 97.2223 103.035 97.3129 103.239C97.4111 103.435 97.5358 103.601 97.6869 103.737C97.8455 103.866 98.023 103.96 98.2194 104.02C98.4158 104.081 98.6122 104.111 98.8086 104.111C99.0655 104.111 99.311 104.062 99.5451 103.964C99.7793 103.858 99.9795 103.711 100.146 103.522C100.319 103.333 100.455 103.103 100.554 102.831C100.659 102.559 100.712 102.253 100.712 101.913V99.0349H101.505V104.7ZM103.268 99.0349H104.061V100.055C104.219 99.7374 104.442 99.4654 104.729 99.2388C105.024 99.0122 105.42 98.8989 105.919 98.8989C106.44 98.8989 106.852 99.0273 107.154 99.2841C107.464 99.5334 107.69 99.8431 107.834 100.213C107.993 99.8431 108.249 99.5334 108.604 99.2841C108.959 99.0273 109.409 98.8989 109.953 98.8989C110.61 98.8989 111.143 99.0953 111.55 99.4881C111.966 99.8809 112.174 100.463 112.174 101.233V104.7H111.38V101.233C111.38 100.946 111.339 100.704 111.256 100.508C111.173 100.304 111.059 100.138 110.916 100.009C110.78 99.8733 110.618 99.7751 110.429 99.7147C110.247 99.6543 110.059 99.6241 109.862 99.6241C109.341 99.6241 108.918 99.8205 108.593 100.213C108.276 100.599 108.117 101.135 108.117 101.822V104.7H107.324V101.233C107.324 100.946 107.282 100.704 107.199 100.508C107.116 100.304 107.007 100.138 106.871 100.009C106.735 99.8733 106.576 99.7751 106.395 99.7147C106.214 99.6543 106.025 99.6241 105.828 99.6241C105.307 99.6241 104.88 99.8205 104.548 100.213C104.223 100.599 104.061 101.135 104.061 101.822V104.7H103.268V99.0349ZM113.901 99.0349H114.694V100.055C114.853 99.7374 115.076 99.4654 115.363 99.2388C115.658 99.0122 116.054 98.8989 116.553 98.8989C117.074 98.8989 117.486 99.0273 117.788 99.2841C118.098 99.5334 118.324 99.8431 118.468 100.213C118.626 99.8431 118.883 99.5334 119.238 99.2841C119.593 99.0273 120.043 98.8989 120.587 98.8989C121.244 98.8989 121.776 99.0953 122.184 99.4881C122.6 99.8809 122.807 100.463 122.807 101.233V104.7H122.014V101.233C122.014 100.946 121.973 100.704 121.89 100.508C121.807 100.304 121.693 100.138 121.55 100.009C121.414 99.8733 121.251 99.7751 121.062 99.7147C120.881 99.6543 120.692 99.6241 120.496 99.6241C119.975 99.6241 119.552 99.8205 119.227 100.213C118.91 100.599 118.751 101.135 118.751 101.822V104.7H117.958V101.233C117.958 100.946 117.916 100.704 117.833 100.508C117.75 100.304 117.641 100.138 117.505 100.009C117.369 99.8733 117.21 99.7751 117.029 99.7147C116.847 99.6543 116.659 99.6241 116.462 99.6241C115.941 99.6241 115.514 99.8205 115.182 100.213C114.857 100.599 114.694 101.135 114.694 101.822V104.7H113.901V99.0349ZM127.141 104.836C126.696 104.836 126.288 104.761 125.917 104.61C125.555 104.459 125.241 104.251 124.977 103.986C124.713 103.722 124.509 103.409 124.365 103.046C124.222 102.683 124.15 102.291 124.15 101.868C124.15 101.445 124.225 101.052 124.376 100.689C124.528 100.327 124.735 100.013 125 99.7487C125.264 99.4843 125.574 99.2766 125.929 99.1255C126.291 98.9744 126.68 98.8989 127.096 98.8989C127.481 98.8989 127.844 98.9631 128.184 99.0915C128.524 99.2124 128.818 99.3974 129.067 99.6467C129.317 99.896 129.513 100.206 129.657 100.576C129.808 100.946 129.883 101.377 129.883 101.868C129.883 101.936 129.883 101.996 129.883 102.049C129.883 102.102 129.876 102.158 129.861 102.219H124.966C125.041 102.785 125.283 103.246 125.691 103.601C126.099 103.956 126.624 104.134 127.266 104.134C127.583 104.134 127.915 104.088 128.263 103.998C128.61 103.9 128.939 103.76 129.249 103.579L129.566 104.077C129.256 104.296 128.905 104.477 128.512 104.621C128.119 104.765 127.662 104.836 127.141 104.836ZM129.101 101.516C129.086 101.222 129.022 100.957 128.909 100.723C128.803 100.481 128.66 100.281 128.478 100.123C128.305 99.9564 128.097 99.828 127.855 99.7374C127.621 99.6467 127.368 99.6014 127.096 99.6014C126.816 99.6014 126.552 99.6505 126.303 99.7487C126.061 99.8394 125.846 99.9678 125.657 100.134C125.476 100.3 125.324 100.5 125.204 100.734C125.083 100.969 125.003 101.229 124.966 101.516H129.101ZM131.219 99.0349H132.012V100.055C132.193 99.7072 132.431 99.4277 132.726 99.2162C133.02 99.0046 133.394 98.8989 133.847 98.8989C134.134 98.8989 134.403 98.948 134.652 99.0462C134.901 99.1368 135.132 99.269 135.343 99.4428L134.935 99.998C134.761 99.8696 134.576 99.7789 134.38 99.726C134.191 99.6732 133.998 99.6467 133.802 99.6467C133.545 99.6467 133.307 99.6958 133.088 99.794C132.869 99.8922 132.68 100.036 132.522 100.225C132.363 100.406 132.238 100.633 132.148 100.904C132.057 101.176 132.012 101.482 132.012 101.822V104.7H131.219V99.0349ZM143.636 101.233C143.636 100.946 143.587 100.704 143.488 100.508C143.398 100.304 143.273 100.138 143.115 100.009C142.963 99.8733 142.79 99.7751 142.593 99.7147C142.397 99.6543 142.201 99.6241 142.004 99.6241C141.747 99.6241 141.502 99.6769 141.268 99.7827C141.033 99.8809 140.829 100.024 140.656 100.213C140.49 100.402 140.354 100.633 140.248 100.904C140.15 101.176 140.101 101.482 140.101 101.822V104.7H139.307V96.2021H140.101V100.055C140.297 99.7374 140.554 99.4654 140.871 99.2388C141.188 99.0122 141.596 98.8989 142.095 98.8989C142.427 98.8989 142.733 98.948 143.013 99.0462C143.3 99.1444 143.545 99.2917 143.749 99.4881C143.961 99.6845 144.127 99.93 144.248 100.225C144.368 100.512 144.429 100.848 144.429 101.233V104.7H143.636V101.233ZM148.707 104.836C148.291 104.836 147.902 104.761 147.539 104.61C147.184 104.459 146.875 104.251 146.61 103.986C146.346 103.722 146.138 103.409 145.987 103.046C145.836 102.683 145.76 102.291 145.76 101.868C145.76 101.445 145.836 101.052 145.987 100.689C146.138 100.327 146.346 100.013 146.61 99.7487C146.875 99.4843 147.184 99.2766 147.539 99.1255C147.902 98.9744 148.291 98.8989 148.707 98.8989C149.122 98.8989 149.507 98.9744 149.862 99.1255C150.225 99.2766 150.538 99.4843 150.803 99.7487C151.067 100.013 151.275 100.327 151.426 100.689C151.577 101.052 151.653 101.445 151.653 101.868C151.653 102.291 151.577 102.683 151.426 103.046C151.275 103.409 151.067 103.722 150.803 103.986C150.538 104.251 150.225 104.459 149.862 104.61C149.507 104.761 149.122 104.836 148.707 104.836ZM148.707 104.111C149.016 104.111 149.299 104.054 149.556 103.941C149.821 103.828 150.047 103.673 150.236 103.477C150.425 103.273 150.572 103.035 150.678 102.763C150.784 102.491 150.837 102.192 150.837 101.868C150.837 101.543 150.784 101.244 150.678 100.972C150.572 100.701 150.425 100.466 150.236 100.27C150.047 100.066 149.821 99.9073 149.556 99.794C149.299 99.6807 149.016 99.6241 148.707 99.6241C148.397 99.6241 148.11 99.6807 147.845 99.794C147.589 99.9073 147.366 100.066 147.177 100.27C146.988 100.466 146.841 100.701 146.735 100.972C146.629 101.244 146.576 101.543 146.576 101.868C146.576 102.192 146.629 102.491 146.735 102.763C146.841 103.035 146.988 103.273 147.177 103.477C147.366 103.673 147.589 103.828 147.845 103.941C148.11 104.054 148.397 104.111 148.707 104.111ZM158.116 104.7H157.323V103.681C157.126 103.998 156.869 104.27 156.552 104.496C156.235 104.723 155.827 104.836 155.328 104.836C154.996 104.836 154.686 104.787 154.399 104.689C154.12 104.591 153.874 104.443 153.663 104.247C153.459 104.051 153.296 103.809 153.175 103.522C153.055 103.227 152.994 102.887 152.994 102.502V99.0349H153.787V102.502C153.787 102.789 153.833 103.035 153.923 103.239C154.021 103.435 154.146 103.601 154.297 103.737C154.456 103.866 154.633 103.96 154.83 104.02C155.026 104.081 155.223 104.111 155.419 104.111C155.676 104.111 155.921 104.062 156.155 103.964C156.39 103.858 156.59 103.711 156.756 103.522C156.93 103.333 157.066 103.103 157.164 102.831C157.27 102.559 157.323 102.253 157.323 101.913V99.0349H158.116V104.7ZM161.781 104.836C161.396 104.836 161 104.783 160.592 104.678C160.184 104.564 159.795 104.364 159.425 104.077L159.742 103.579C160.112 103.805 160.478 103.956 160.841 104.032C161.211 104.1 161.509 104.134 161.736 104.134C161.902 104.134 162.084 104.119 162.28 104.088C162.476 104.051 162.658 103.998 162.824 103.93C162.99 103.854 163.13 103.756 163.243 103.635C163.356 103.507 163.413 103.352 163.413 103.171C163.413 102.982 163.356 102.831 163.243 102.717C163.13 102.597 162.986 102.502 162.813 102.434C162.646 102.366 162.469 102.317 162.28 102.287C162.091 102.249 161.917 102.215 161.759 102.185C161.532 102.14 161.287 102.087 161.022 102.026C160.758 101.958 160.512 101.868 160.286 101.754C160.059 101.633 159.87 101.479 159.719 101.29C159.568 101.093 159.493 100.848 159.493 100.553C159.493 100.251 159.568 99.9942 159.719 99.7827C159.87 99.5712 160.063 99.4012 160.297 99.2728C160.531 99.1444 160.784 99.05 161.056 98.9895C161.336 98.9291 161.604 98.8989 161.861 98.8989C162.669 98.8989 163.353 99.1595 163.912 99.6807L163.64 100.191C163.134 99.7978 162.544 99.6014 161.872 99.6014C161.668 99.6014 161.468 99.6203 161.272 99.6581C161.083 99.6958 160.913 99.7525 160.762 99.828C160.611 99.9036 160.49 100.002 160.399 100.123C160.308 100.236 160.263 100.368 160.263 100.519C160.263 100.693 160.32 100.836 160.433 100.95C160.546 101.063 160.686 101.158 160.852 101.233C161.018 101.301 161.188 101.354 161.362 101.392C161.543 101.429 161.698 101.46 161.827 101.482C162.091 101.528 162.363 101.584 162.643 101.652C162.922 101.72 163.175 101.815 163.402 101.936C163.628 102.056 163.813 102.215 163.957 102.411C164.108 102.608 164.184 102.861 164.184 103.171C164.184 103.48 164.108 103.741 163.957 103.952C163.806 104.164 163.613 104.338 163.379 104.474C163.145 104.602 162.884 104.693 162.597 104.746C162.318 104.806 162.046 104.836 161.781 104.836ZM168.105 104.836C167.659 104.836 167.252 104.761 166.881 104.61C166.519 104.459 166.205 104.251 165.941 103.986C165.677 103.722 165.473 103.409 165.329 103.046C165.186 102.683 165.114 102.291 165.114 101.868C165.114 101.445 165.189 101.052 165.34 100.689C165.491 100.327 165.699 100.013 165.964 99.7487C166.228 99.4843 166.538 99.2766 166.893 99.1255C167.255 98.9744 167.644 98.8989 168.06 98.8989C168.445 98.8989 168.808 98.9631 169.148 99.0915C169.487 99.2124 169.782 99.3974 170.031 99.6467C170.281 99.896 170.477 100.206 170.621 100.576C170.772 100.946 170.847 101.377 170.847 101.868C170.847 101.936 170.847 101.996 170.847 102.049C170.847 102.102 170.84 102.158 170.825 102.219H165.93C166.005 102.785 166.247 103.246 166.655 103.601C167.063 103.956 167.588 104.134 168.23 104.134C168.547 104.134 168.879 104.088 169.227 103.998C169.574 103.9 169.903 103.76 170.213 103.579L170.53 104.077C170.22 104.296 169.869 104.477 169.476 104.621C169.083 104.765 168.626 104.836 168.105 104.836ZM170.065 101.516C170.05 101.222 169.986 100.957 169.873 100.723C169.767 100.481 169.623 100.281 169.442 100.123C169.268 99.9564 169.061 99.828 168.819 99.7374C168.585 99.6467 168.332 99.6014 168.06 99.6014C167.78 99.6014 167.516 99.6505 167.267 99.7487C167.025 99.8394 166.81 99.9678 166.621 100.134C166.439 100.3 166.288 100.5 166.168 100.734C166.047 100.969 165.967 101.229 165.93 101.516H170.065Z" fill="white"/>
<path d="M3.39631 107.933L3.19713 108.061C2.54744 106.738 2.22259 105.284 2.22259 103.7C2.22259 102.354 2.4194 101.135 2.81301 100.044C3.21136 98.9486 3.75672 97.9622 4.4491 97.0848C5.14147 96.2028 5.95477 95.4559 6.889 94.8441L7.03127 95.0219C5.63704 96.1791 4.58425 97.597 3.87291 99.2758C3.16156 100.955 2.80589 102.681 2.80589 104.454C2.80589 105.028 2.86754 105.661 2.99084 106.354C3.11414 107.051 3.2493 107.577 3.39631 107.933ZM12.5371 104.675H12.2027L9.52098 96.5015L8.66736 100.001C8.34015 101.367 8.04612 102.429 7.7853 103.188C7.52921 103.942 7.22571 104.478 6.87478 104.796C6.52385 105.114 6.16581 105.272 5.80065 105.272C5.44972 105.272 5.15807 105.173 4.9257 104.974C4.69332 104.779 4.57714 104.528 4.57714 104.22C4.57714 103.736 4.75972 103.494 5.12487 103.494C5.26714 103.494 5.38807 103.544 5.48766 103.643C5.59199 103.743 5.64415 103.873 5.64415 104.035C5.64415 104.153 5.60147 104.293 5.51611 104.454C5.46869 104.549 5.44498 104.625 5.44498 104.682C5.44498 104.772 5.47817 104.841 5.54457 104.888C5.61096 104.936 5.70817 104.959 5.83622 104.959C6.27251 104.959 6.66849 104.68 7.02416 104.12C7.37983 103.56 7.83746 102.114 8.39705 99.7808L9.12262 96.7434C9.25541 96.2075 9.3218 95.9135 9.3218 95.8613C9.3218 95.7048 9.24592 95.5697 9.09417 95.4559C8.94242 95.3373 8.56303 95.2733 7.95602 95.2638L8.03427 94.9366H10.2608L12.7362 102.455L13.3267 100.001C13.9337 97.4784 14.3984 95.9846 14.7209 95.5199C15.0481 95.0504 15.4228 94.8156 15.8448 94.8156C16.0962 94.8156 16.293 94.8773 16.4352 95.0006C16.5775 95.1192 16.6486 95.2685 16.6486 95.4487C16.6486 95.61 16.5917 95.7404 16.4779 95.84C16.3688 95.9396 16.2432 95.9894 16.1009 95.9894C15.9207 95.9894 15.7571 95.8756 15.6101 95.6479C15.5295 95.5151 15.4346 95.4487 15.3255 95.4487C15.1311 95.4487 14.9224 95.7143 14.6996 96.2455C14.4814 96.7766 14.121 98.0878 13.6183 100.179L12.5371 104.675ZM15.2117 102.712C15.2117 102.142 15.3445 101.524 15.6101 100.855C15.8756 100.182 16.255 99.6362 16.7482 99.2189C17.2414 98.8015 17.7204 98.5929 18.1851 98.5929C18.6072 98.5929 18.9534 98.7731 19.2237 99.1335C19.4988 99.4892 19.6363 99.9729 19.6363 100.585C19.6363 101.324 19.4845 102.026 19.181 102.69C18.8775 103.354 18.4958 103.864 18.0358 104.22C17.5805 104.571 17.1324 104.746 16.6913 104.746C16.2977 104.746 15.9515 104.594 15.6528 104.291C15.3587 103.987 15.2117 103.461 15.2117 102.712ZM15.9729 103.53C15.9729 103.786 16.0393 104.004 16.172 104.184C16.3048 104.364 16.4874 104.454 16.7198 104.454C17.3552 104.454 17.8769 103.852 18.2847 102.648C18.6973 101.443 18.9036 100.523 18.9036 99.8875C18.9036 99.5603 18.8396 99.3161 18.7115 99.1548C18.5882 98.9889 18.4009 98.9059 18.1496 98.9059C17.5568 98.9059 17.0446 99.4655 16.6131 100.585C16.1863 101.699 15.9729 102.681 15.9729 103.53ZM25.7396 103.117H26.0384C25.6353 104.227 25.0899 104.782 24.4023 104.782C24.1699 104.782 23.9944 104.718 23.8759 104.59C23.7621 104.461 23.7052 104.269 23.7052 104.013C23.7052 103.653 23.8332 103.077 24.0893 102.285C23.2594 103.949 22.439 104.782 21.628 104.782C21.3293 104.782 21.0945 104.689 20.9238 104.504C20.7531 104.319 20.6677 104.089 20.6677 103.814C20.6677 103.544 20.7744 103.096 20.9878 102.47L21.8628 99.916C21.9908 99.5366 22.0549 99.309 22.0549 99.2331C22.0549 99.1098 21.9932 99.0481 21.8699 99.0481C21.5711 99.0481 21.2439 99.4489 20.8882 100.25H20.5468C20.7365 99.7524 20.9855 99.3469 21.2937 99.0339C21.602 98.7162 21.9055 98.5573 22.2042 98.5573C22.3892 98.5573 22.5457 98.6166 22.6737 98.7352C22.8065 98.849 22.8729 99.0221 22.8729 99.2544C22.8729 99.4204 22.7899 99.7524 22.6239 100.25L21.7276 102.882C21.5569 103.394 21.4715 103.731 21.4715 103.892C21.4715 104.039 21.5047 104.151 21.5711 104.227C21.6375 104.303 21.7347 104.341 21.8628 104.341C22.2801 104.341 22.7757 103.897 23.3495 103.01C23.9233 102.124 24.4734 100.805 24.9998 99.0553L25.1207 98.6498H25.9744L24.7295 102.733C24.5303 103.397 24.4307 103.798 24.4307 103.935C24.4307 104.054 24.4544 104.144 24.5019 104.205C24.5493 104.262 24.6204 104.291 24.7153 104.291C25.0757 104.291 25.4171 103.9 25.7396 103.117ZM31.9212 103.245H32.284C31.9994 103.757 31.7078 104.141 31.409 104.397C31.115 104.654 30.8139 104.782 30.5056 104.782C30.2922 104.782 30.1073 104.715 29.9508 104.582C29.799 104.454 29.7231 104.262 29.7231 104.006C29.7231 103.793 29.8322 103.371 30.0504 102.74L30.8115 100.57C31.0154 99.9776 31.1174 99.5935 31.1174 99.418C31.1174 99.2615 31.0818 99.1454 31.0107 99.0695C30.9443 98.9936 30.8399 98.9557 30.6977 98.9557C30.3373 98.9557 29.8654 99.3801 29.2821 100.229C28.7035 101.073 28.2056 102.18 27.7883 103.551L27.4397 104.689H26.5719L27.8238 100.649C28.0515 99.9041 28.1653 99.4773 28.1653 99.3682C28.1653 99.2876 28.1511 99.2284 28.1226 99.1904C28.0942 99.1525 28.0491 99.1335 27.9875 99.1335C27.7077 99.1335 27.3757 99.4797 26.9916 100.172H26.6644C27.2571 99.0956 27.8191 98.5573 28.3502 98.5573C28.5352 98.5573 28.6727 98.6142 28.7628 98.728C28.8577 98.8371 28.9051 99.0055 28.9051 99.2331C28.9051 99.6409 28.7462 100.272 28.4285 101.125C29.2868 99.4133 30.1215 98.5573 30.9324 98.5573C31.1932 98.5573 31.4209 98.645 31.6153 98.8205C31.8097 98.9912 31.907 99.2426 31.907 99.5745C31.907 99.7879 31.8097 100.186 31.6153 100.77L30.8542 103.039C30.6503 103.651 30.5483 103.992 30.5483 104.063C30.5483 104.153 30.5696 104.222 30.6123 104.269C30.6597 104.312 30.7261 104.333 30.8115 104.333C30.9727 104.333 31.1458 104.243 31.3308 104.063C31.5157 103.878 31.7125 103.605 31.9212 103.245ZM34.8377 94.9721L35.0369 94.8441C35.6866 96.1672 36.0114 97.6207 36.0114 99.2046C36.0114 101.125 35.5822 102.856 34.7239 104.397C33.8703 105.934 32.744 107.155 31.345 108.061L31.2027 107.883C32.6017 106.726 33.6545 105.308 34.3611 103.629C35.0724 101.95 35.4281 100.224 35.4281 98.4506C35.4281 97.8768 35.3665 97.2437 35.2432 96.5513C35.1199 95.8542 34.9847 95.3278 34.8377 94.9721Z" fill="white"/>
<line x1="105.938" y1="85.5723" x2="171.495" y2="45.1048" stroke="white" stroke-width="0.809351"/>
</svg>
